<svg width="100%" height="440" id="svg" viewBox="0 0 1440 700" xmlns="http://www.w3.org/2000/svg" class="transition duration-300 ease-in-out delay-150"><defs><linearGradient id="gradient"><stop offset="5%" stop-color="#002bdc44"></stop><stop offset="95%" stop-color="#32ded444"></stop></linearGradient></defs><path d="M 0,700 C 0,700 0,140 0,140 C 89.8468899521531,157.96172248803828 179.6937799043062,175.92344497607655 284,170 C 388.3062200956938,164.07655502392345 507.07177033492826,134.26794258373207 610,142 C 712.9282296650717,149.73205741626793 800.0191387559809,195.00478468899522 883,185 C 965.9808612440191,174.99521531100478 1044.8516746411483,109.71291866028709 1137,93 C 1229.1483253588517,76.28708133971291 1334.5741626794259,108.14354066985646 1440,140 C 1440,140 1440,700 1440,700 Z" stroke="none" stroke-width="0" fill="url(#gradient)" class="transition-all duration-300 ease-in-out delay-150" transform="rotate(-180 720 350)"></path><defs><linearGradient id="gradient"><stop offset="5%" stop-color="#002bdc66"></stop><stop offset="95%" stop-color="#32ded466"></stop></linearGradient></defs><path d="M 0,700 C 0,700 0,280 0,280 C 105.08133971291866,296.4401913875598 210.16267942583733,312.8803827751196 293,317 C 375.8373205741627,321.1196172248804 436.43062200956933,312.9186602870813 537,307 C 637.5693779904307,301.0813397129187 778.1148325358853,297.44497607655506 880,294 C 981.8851674641147,290.55502392344494 1045.11004784689,287.30143540669854 1132,285 C 1218.88995215311,282.69856459330146 1329.4449760765551,281.3492822966507 1440,280 C 1440,280 1440,700 1440,700 Z" stroke="none" stroke-width="0" fill="url(#gradient)" class="transition-all duration-300 ease-in-out delay-150" transform="rotate(-180 720 350)"></path><defs><linearGradient id="gradient"><stop offset="5%" stop-color="#002bdc88"></stop><stop offset="95%" stop-color="#32ded488"></stop></linearGradient></defs><path d="M 0,700 C 0,700 0,420 0,420 C 74.58373205741626,438.3636363636364 149.1674641148325,456.7272727272727 239,464 C 328.8325358851675,471.2727272727273 433.9138755980862,467.45454545454544 551,467 C 668.0861244019138,466.54545454545456 797.1770334928229,469.45454545454544 900,460 C 1002.8229665071771,450.54545454545456 1079.377990430622,428.72727272727275 1165,420 C 1250.622009569378,411.27272727272725 1345.311004784689,415.6363636363636 1440,420 C 1440,420 1440,700 1440,700 Z" stroke="none" stroke-width="0" fill="url(#gradient)" class="transition-all duration-300 ease-in-out delay-150" transform="rotate(-180 720 350)"></path><defs><linearGradient id="gradient"><stop offset="5%" stop-color="#002bdcff"></stop><stop offset="95%" stop-color="#32ded4ff"></stop></linearGradient></defs><path d="M 0,700 C 0,700 0,560 0,560 C 85.99043062200957,577.4258373205741 171.98086124401914,594.8516746411484 262,582 C 352.01913875598086,569.1483253588516 446.06698564593296,526.0191387559807 545,529 C 643.933014354067,531.9808612440193 747.7511961722489,581.0717703349283 838,598 C 928.2488038277511,614.9282296650717 1004.9282296650717,599.6937799043062 1103,588 C 1201.0717703349283,576.3062200956938 1320.5358851674641,568.1531100478469 1440,560 C 1440,560 1440,700 1440,700 Z" stroke="none" stroke-width="0" fill="url(#gradient)" class="transition-all duration-300 ease-in-out delay-150" transform="rotate(-180 720 350)"></path></svg>