<?xml version="1.0"?>
<svg xmlns="http://www.w3.org/2000/svg" xmlns:xlink="http://www.w3.org/1999/xlink" xmlns:svgjs="http://svgjs.com/svgjs" version="1.1" width="512" height="512" x="0" y="0" viewBox="0 0 256 256" style="enable-background:new 0 0 512 512" xml:space="preserve" class=""><g><g xmlns="http://www.w3.org/2000/svg"><g><path d="m128 9.7c-65.33 0-118.3 52.97-118.3 118.3s52.97 118.3 118.3 118.3 118.3-52.97 118.3-118.3-52.97-118.3-118.3-118.3z" fill="#ffc952" data-original="#ffe2e2" style="" class=""/><path d="m128 73.5-12.931 51.339h25.862z" fill="#ff4a73" data-original="#ff4a73" style="" class=""/><path d="m57.19 176.87c-1.62.82-3.42 1.26-5.22 1.26-4.35 0-8.28-2.41-10.25-6.28-6.98-13.67-10.52-28.43-10.52-43.85h23c0 11.75 2.7 22.99 8 33.4 2.89 5.65.63 12.59-5.01 15.47z" fill="#3bb2a0" data-original="#3bb2a0" style="" class=""/><path d="m75.84 75.84c-13.36 13.36-21.64 31.82-21.64 52.16h-23c0-26.68 10.86-50.88 28.39-68.41z" fill="#44c7b6" data-original="#44c7b6" style="" class=""/><path d="m128 31.2v23c-20.34 0-38.8 8.28-52.16 21.64l-16.25-16.25c17.53-17.53 41.73-28.39 68.41-28.39z" fill="#4bdbc3" data-original="#4bdbc3" style=""/><path d="m196.41 59.59-16.25 16.25c-13.36-13.36-31.82-21.64-52.16-21.64v-23c26.68 0 50.88 10.86 68.41 28.39z" fill="#f973a3" data-original="#f973a3" style="" class=""/><path d="m224.8 128h-23c0-20.34-8.28-38.8-21.64-52.16l16.25-16.25c17.53 17.53 28.39 41.73 28.39 68.41z" fill="#ff4a73" data-original="#ff4a73" style="" class=""/><path d="m224.8 128c0 15.21-3.64 30.37-10.51 43.85-1.97 3.87-5.9 6.28-10.25 6.28-1.8 0-3.61-.44-5.22-1.26-5.65-2.88-7.9-9.82-5.02-15.47 5.31-10.4 8-21.64 8-33.4z" fill="#ea2a6a" data-original="#ea2a6a" style=""/><circle cx="128" cy="128" fill="#5fcdff" r="17.5" data-original="#5fcdff" style="" class=""/><path d="m24.7 128c0-62.81 48.96-114.2 110.8-118.06-2.48-.16-4.98-.24-7.5-.24-65.33 0-118.3 52.97-118.3 118.3s52.97 118.3 118.3 118.3c2.52 0 5.02-.08 7.5-.24-61.84-3.86-110.8-55.25-110.8-118.06z" fill="#efb432" data-original="#ffefee" style="" class=""/><path d="m128 9.7c-2.52 0-5.02.08-7.5.24 61.84 3.86 110.8 55.25 110.8 118.06s-48.96 114.2-110.8 118.06c2.48.16 4.98.24 7.5.24 65.33 0 118.3-52.97 118.3-118.3s-52.97-118.3-118.3-118.3z" fill="#efb432" data-original="#ffcfcf" style="" class=""/></g><g fill="#5f266d"><path d="m141.67 111.417-9.791-38.894c-.447-1.777-2.046-3.023-3.879-3.023s-3.432 1.246-3.879 3.023l-9.791 38.894c-15.544 12.837-6.369 38.083 13.67 38.083 11.855 0 21.5-9.645 21.5-21.5 0-6.668-3.051-12.636-7.83-16.583zm-13.67-21.531 4.291 17.046c-1.387-.282-2.822-.432-4.291-.432s-2.904.15-4.291.432zm0 51.614c-7.444 0-13.5-6.056-13.5-13.5s6.056-13.5 13.5-13.5 13.5 6.056 13.5 13.5-6.056 13.5-13.5 13.5z" fill="#000000" data-original="#5f266d" style="" class=""/><path d="m136.602 209.506c-2.734.134-5.524.131-8.328-.001-2.212-.14-4.081 1.599-4.185 3.806s1.6 4.08 3.806 4.185c1.539.073 3.087.11 4.603.11 1.497 0 3.009-.037 4.494-.109 2.207-.107 3.908-1.983 3.8-4.19s-1.984-3.889-4.19-3.801z" fill="#000000" data-original="#5f266d" style="" class=""/><path d="m189.124 185.119c-1.865-1.172-4.332-.607-5.511 1.253-.097.154-10.022 15.47-32.956 21.118-2.145.528-3.456 2.695-2.927 4.841.449 1.823 2.083 3.044 3.881 3.044.316 0 .638-.038.959-.117 26.237-6.462 37.363-23.902 37.824-24.642 1.166-1.87.596-4.324-1.27-5.497z" fill="#000000" data-original="#5f266d" style="" class=""/><path d="m128 5.7c-67.437 0-122.3 54.863-122.3 122.3s54.863 122.3 122.3 122.3 122.3-54.863 122.3-122.3-54.863-122.3-122.3-122.3zm0 236.6c-63.025 0-114.3-51.274-114.3-114.3s51.275-114.3 114.3-114.3 114.3 51.275 114.3 114.3-51.275 114.3-114.3 114.3z" fill="#000000" data-original="#5f266d" style="" class=""/><path d="m128 27.2c-74.723 0-124.11 79.355-89.845 146.464 6.256 12.291 24.288 10.861 28.543-2.256 3.892-12.001-8.498-16.574-8.498-43.408 0-5.816.71-11.526 2.089-17.03 13.043-52.069 78.491-70.849 117.043-32.302 22.062 22.064 26.199 54.875 12.905 80.916-3.878 7.604-.875 16.954 6.77 20.852 7.591 3.861 16.937.911 20.848-6.77 33.799-66.318-14.27-146.466-89.855-146.466zm-69.361 136.022c2.545 4.979-1.1 10.908-6.669 10.908-5.935 0-8.169-5.575-11.803-16.145-2.977-8.663-4.509-17.246-4.874-25.985h15.007c.529 10.509 3.191 21.109 8.339 31.222zm-8.338-39.222h-15.003c.922-21.942 9.487-42.481 24.36-58.685l10.596 10.595c-12.078 13.36-19.055 30.314-19.953 48.09zm73.699-73.699c-18.573.938-35.34 8.423-48.089 19.953l-10.596-10.596c16.738-15.33 37.408-23.481 58.685-24.36zm8 0v-15.003c21.845.902 42.621 9.548 58.685 24.361l-10.595 10.595c-13.239-11.974-30.138-19.046-48.09-19.953zm53.746 25.609 10.595-10.595c14.776 16.009 23.437 36.721 24.361 58.685h-15.003c-.935-18.52-8.401-35.316-19.953-48.09zm24.98 94.123v.002c-1.286 2.525-3.848 4.095-6.686 4.095-5.559 0-9.224-5.917-6.678-10.91 4.833-9.466 7.775-19.995 8.338-31.22h15.002c-.584 13.412-4.046 26.395-9.976 38.033z" fill="#000000" data-original="#5f266d" style="" class=""/></g></g></g></svg>
